<svg xmlns="http://www.w3.org/2000/svg" viewBox="0 0 1920 1080"><defs><style>.cls-1{fill:#fff;}.cls-1,.cls-5{stroke:#000;}.cls-1,.cls-3,.cls-4,.cls-5,.cls-6{stroke-miterlimit:10;}.cls-2{font-size:24px;}.cls-2,.cls-9{font-family:KozGoPr6N-Regular-90ms-RKSJ-H, Kozuka Gothic Pr6N;}.cls-3,.cls-4,.cls-5,.cls-6{fill:none;}.cls-3{stroke:red;}.cls-3,.cls-5{stroke-width:3px;}.cls-4{stroke:blue;}.cls-4,.cls-6{stroke-width:0.5px;stroke-dasharray:3;}.cls-6{stroke:#438288;}.cls-7{fill:red;}.cls-8{fill:blue;}.cls-9{font-size:20px;}.cls-10{letter-spacing:0.25em;}</style></defs><g id="背景"><rect class="cls-1" x="0.5" y="0.5" width="1920" height="1080"/></g><g id="box1"><text class="cls-2" transform="translate(52.82 528.49)">Harmonious<tspan x="8.86" y="36">Triangle (A)</tspan></text><text class="cls-2" transform="translate(52.82 632.99)">Harmonious<tspan x="8.86" y="36">Triangle (A)</tspan><tspan x="51.38" y="72">(Mirror)</tspan></text><text class="cls-2" transform="translate(52.82 771.49)">Harmonious<tspan x="10.68" y="36">Triangle (B)</tspan></text><text class="cls-2" transform="translate(52.82 875.99)">Harmonious<tspan x="10.68" y="36">Triangle (B)</tspan><tspan x="51.38" y="72">(Mirror)</tspan></text><text class="cls-2" transform="translate(88.2 408.46)">Diagonal<tspan x="16.01" y="36">(Mirror)</tspan></text><text class="cls-2" transform="translate(24.91 184.61)">Diagonal Cross</text><text class="cls-2" transform="translate(127.22 63.11)">Cross</text><text class="cls-2" transform="translate(88.2 306.11)">Diagonal</text><g id="Cross"><line class="cls-3" x1="192" y1="54" x2="384" y2="54"/><line class="cls-3" x1="288" x2="288" y2="108"/></g><g id="CrossGuid"><line class="cls-4" x1="192" y1="540" x2="384" y2="540"/><line class="cls-4" x1="288" y1="486" x2="288" y2="594"/></g><g id="CrossGuid-2" data-name="CrossGuid"><line class="cls-4" x1="192" y1="661.5" x2="384" y2="661.5"/><line class="cls-4" x1="288" y1="607.5" x2="288" y2="715.5"/></g><g id="CrossGuid-3" data-name="CrossGuid"><line class="cls-4" x1="192" y1="783" x2="384" y2="783"/><line class="cls-4" x1="288" y1="729" x2="288" y2="837"/></g><g id="CrossGuid-4" data-name="CrossGuid"><line class="cls-4" x1="192" y1="904.5" x2="384" y2="904.5"/><line class="cls-4" x1="288" y1="850.5" x2="288" y2="958.5"/></g><line class="cls-3" x1="192" y1="121.5" x2="384" y2="229.5"/><line class="cls-3" x1="192" y1="243" x2="384" y2="351"/><line class="cls-3" x1="384" y1="121.5" x2="192" y2="229.5"/><line class="cls-3" x1="384" y1="364.5" x2="192" y2="472.5"/><line class="cls-3" x1="192" y1="486" x2="384" y2="594"/><line class="cls-3" x1="288" y1="486" x2="192" y2="594"/><line class="cls-3" x1="384" y1="486" x2="288" y2="594"/><line class="cls-3" x1="384" y1="607.5" x2="192" y2="715.5"/><line class="cls-3" x1="288" y1="607.5" x2="384" y2="715.5"/><line class="cls-3" x1="192" y1="607.5" x2="288" y2="715.5"/><line class="cls-3" x1="192" y1="729" x2="384" y2="837"/><line class="cls-3" x1="384" y1="729" x2="192" y2="787.01"/><line class="cls-3" x1="384" y1="783" x2="192" y2="837"/><line class="cls-3" x1="384" y1="850.5" x2="192" y2="958.5"/><line class="cls-3" x1="192" y1="850.5" x2="384" y2="908.51"/><line class="cls-3" x1="192" y1="904.5" x2="384" y2="958.5"/><rect class="cls-5" x="192" width="192" height="108"/><rect class="cls-5" x="192" y="121.5" width="192" height="108"/><rect class="cls-5" x="192" y="243" width="192" height="108"/><rect class="cls-5" x="192" y="364.5" width="192" height="108"/><rect class="cls-5" x="192" y="486" width="192" height="108"/><rect class="cls-5" x="192" y="607.5" width="192" height="108"/><rect class="cls-5" x="192" y="729" width="192" height="108"/><rect class="cls-5" x="192" y="850.5" width="192" height="108"/></g><g id="box2"><text class="cls-2" transform="translate(481.89 163.99)">Triangle<tspan x="-15.14" y="36">Thirds (A)</tspan></text><text class="cls-2" transform="translate(481.89 268.96)">Triangle<tspan x="-15.14" y="36">Thirds (A)</tspan><tspan x="6.31" y="72">(Mirror)</tspan></text><text class="cls-2" transform="translate(481.89 409.82)">Triangle<tspan x="-13.32" y="36">Thirds (B)</tspan></text><text class="cls-2" transform="translate(481.89 511.96)">Triangle<tspan x="-13.32" y="36">Thirds (B)</tspan><tspan x="6.31" y="72">(Mirror)</tspan></text><g id="_3分割ガイド" data-name="3分割ガイド"><line class="cls-6" x1="576" y1="157.5" x2="768" y2="157.5"/><line class="cls-6" x1="576" y1="193.5" x2="768" y2="193.5"/><line class="cls-6" x1="640" y1="121.5" x2="640" y2="229.5"/><line class="cls-6" x1="704" y1="121.5" x2="704" y2="229.5"/></g><g id="_3分割ガイド-2" data-name="3分割ガイド"><line class="cls-6" x1="576" y1="279" x2="768" y2="279"/><line class="cls-6" x1="576" y1="315" x2="768" y2="315"/><line class="cls-6" x1="640" y1="243" x2="640" y2="351"/><line class="cls-6" x1="704" y1="243" x2="704" y2="351"/></g><g id="_3分割ガイド-3" data-name="3分割ガイド"><line class="cls-6" x1="576" y1="400.5" x2="768" y2="400.5"/><line class="cls-6" x1="576" y1="436.5" x2="768" y2="436.5"/><line class="cls-6" x1="640" y1="364.5" x2="640" y2="472.5"/><line class="cls-6" x1="704" y1="364.5" x2="704" y2="472.5"/></g><g id="_3分割ガイド-4" data-name="3分割ガイド"><line class="cls-6" x1="576" y1="522" x2="768" y2="522"/><line class="cls-6" x1="576" y1="558" x2="768" y2="558"/><line class="cls-6" x1="640" y1="486" x2="640" y2="594"/><line class="cls-6" x1="704" y1="486" x2="704" y2="594"/></g><line class="cls-3" x1="640" y1="121.5" x2="576" y2="229.5"/><line class="cls-3" x1="768" y1="122" x2="704" y2="229.5"/><line class="cls-3" x1="576" y1="121.5" x2="768" y2="229.5"/><line class="cls-3" x1="640" y1="351" x2="576" y2="243"/><line class="cls-3" x1="768" y1="350.5" x2="704" y2="243"/><line class="cls-3" x1="576" y1="351" x2="768" y2="243"/><line class="cls-3" x1="576" y1="364.5" x2="768" y2="472.5"/><line class="cls-3" x1="768" y1="364.5" x2="576" y2="400.5"/><line class="cls-3" x1="768" y1="436.5" x2="576" y2="472.5"/><line class="cls-3" x1="768" y1="486" x2="576" y2="594"/><line class="cls-3" x1="576" y1="486" x2="768" y2="522"/><line class="cls-3" x1="576" y1="558" x2="768" y2="594"/><rect class="cls-5" x="576" y="121.5" width="192" height="108"/><rect class="cls-5" x="576" y="243" width="192" height="108"/><rect class="cls-5" x="576" y="364.5" width="192" height="108"/><rect class="cls-5" x="576" y="486" width="192" height="108"/><text class="cls-2" transform="translate(423.31 63.1)">Rule of Thirds</text><line class="cls-3" x1="576" y1="35.99" x2="768" y2="35.99"/><line class="cls-3" x1="576" y1="71.99" x2="768" y2="71.99"/><line class="cls-3" x1="640" y1="-0.01" x2="640" y2="107.99"/><line class="cls-3" x1="704" y1="-0.01" x2="704" y2="107.99"/><rect class="cls-5" x="576" y="-0.01" width="192" height="108"/></g><g id="box3"><text class="cls-2" transform="translate(874.51 164.28)">Golden<tspan x="-39.24" y="36">Triangle(A)</tspan></text><text class="cls-2" transform="translate(874.51 268.96)">Golden<tspan x="-39.24" y="36">Triangle(A)</tspan><tspan x="-2.3" y="72">(Mirror)</tspan></text><text class="cls-2" transform="translate(874.51 407.28)">Golden<tspan x="-37.42" y="36">Triangle(B)</tspan></text><text class="cls-2" transform="translate(874.51 511.96)">Golden<tspan x="-37.42" y="36">Triangle(B)</tspan><tspan x="-2.3" y="72">(Mirror)</tspan></text><text class="cls-2" transform="translate(874.51 650.28)">Golden<tspan x="-38.4" y="36">Triangle(C)</tspan></text><text class="cls-2" transform="translate(874.51 754.96)">Golden<tspan x="-38.4" y="36">Triangle(C)</tspan><tspan x="-2.3" y="72">(Mirror)</tspan></text><text class="cls-2" transform="translate(874.51 893.28)">Golden<tspan x="-40.58" y="36">Triangle(D)</tspan></text><text class="cls-2" transform="translate(874.51 997.96)">Golden<tspan x="-40.58" y="36">Triangle(D)</tspan><tspan x="-2.3" y="72">(Mirror)</tspan></text><text class="cls-2" transform="translate(870.17 63.11)">Phi grid</text><line class="cls-3" x1="960.5" y1="41.25" x2="1152" y2="41.25"/><line class="cls-3" x1="960.5" y1="66.75" x2="1152" y2="66.75"/><line class="cls-3" x1="1033.34" x2="1033.34" y2="108"/><line class="cls-3" x1="1078.66" x2="1078.66" y2="108"/><line class="cls-4" x1="960.5" y1="162.75" x2="1152" y2="162.75"/><line class="cls-4" x1="960.5" y1="188.25" x2="1152" y2="188.25"/><line class="cls-4" x1="1033.34" y1="121.5" x2="1033.34" y2="229.5"/><line class="cls-4" x1="1078.66" y1="121.5" x2="1078.66" y2="229.5"/><line class="cls-4" x1="960.5" y1="284.25" x2="1152" y2="284.25"/><line class="cls-4" x1="960.5" y1="309.75" x2="1152" y2="309.75"/><line class="cls-4" x1="1033.34" y1="243" x2="1033.34" y2="351"/><line class="cls-4" x1="1078.66" y1="243" x2="1078.66" y2="351"/><line class="cls-4" x1="960.5" y1="405.75" x2="1152" y2="405.75"/><line class="cls-4" x1="960.5" y1="431.25" x2="1152" y2="431.25"/><line class="cls-4" x1="1033.34" y1="364.5" x2="1033.34" y2="472.5"/><line class="cls-4" x1="1078.66" y1="364.5" x2="1078.66" y2="472.5"/><line class="cls-4" x1="960.5" y1="527.25" x2="1152" y2="527.25"/><line class="cls-4" x1="960.5" y1="552.75" x2="1152" y2="552.75"/><line class="cls-4" x1="1033.34" y1="486" x2="1033.34" y2="594"/><line class="cls-4" x1="1078.66" y1="486" x2="1078.66" y2="594"/><line class="cls-4" x1="960.5" y1="648.75" x2="1152" y2="648.75"/><line class="cls-4" x1="960.5" y1="674.25" x2="1152" y2="674.25"/><line class="cls-4" x1="1033.34" y1="607.5" x2="1033.34" y2="715.5"/><line class="cls-4" x1="1078.66" y1="607.5" x2="1078.66" y2="715.5"/><line class="cls-4" x1="960.5" y1="770.25" x2="1152" y2="770.25"/><line class="cls-4" x1="960.5" y1="795.75" x2="1152" y2="795.75"/><line class="cls-4" x1="1033.34" y1="729" x2="1033.34" y2="837"/><line class="cls-4" x1="1078.66" y1="729" x2="1078.66" y2="837"/><line class="cls-4" x1="960.5" y1="891.75" x2="1152" y2="891.75"/><line class="cls-4" x1="960.5" y1="917.25" x2="1152" y2="917.25"/><line class="cls-4" x1="1033.34" y1="850.5" x2="1033.34" y2="958.5"/><line class="cls-4" x1="1078.66" y1="850.5" x2="1078.66" y2="958.5"/><line class="cls-4" x1="960.5" y1="1013.25" x2="1152" y2="1013.25"/><line class="cls-4" x1="960.5" y1="1038.75" x2="1152" y2="1038.75"/><line class="cls-4" x1="1033.34" y1="972" x2="1033.34" y2="1080"/><line class="cls-4" x1="1078.66" y1="972" x2="1078.66" y2="1080"/><line class="cls-3" x1="960" y1="121.5" x2="1152" y2="229.5"/><line class="cls-3" x1="1033.34" y1="121.5" x2="960" y2="229.5"/><line class="cls-3" x1="1152" y1="121.5" x2="1078.66" y2="229.5"/><line class="cls-3" x1="1152" y1="242.99" x2="960" y2="350.99"/><line class="cls-3" x1="1078.66" y1="242.99" x2="1152" y2="350.99"/><line class="cls-3" x1="960" y1="242.99" x2="1033.34" y2="350.99"/><line class="cls-3" x1="960" y1="364.5" x2="1152" y2="472.5"/><line class="cls-3" x1="960" y1="472.5" x2="1033.34" y2="405.75"/><line class="cls-3" x1="1079.04" y1="431.46" x2="1152" y2="364.5"/><line class="cls-3" x1="1152" y1="486" x2="960" y2="594"/><line class="cls-3" x1="1152" y1="594" x2="1078.66" y2="527.25"/><line class="cls-3" x1="1032.96" y1="552.96" x2="960" y2="486"/><line class="cls-3" x1="960" y1="607.5" x2="1152" y2="715.5"/><line class="cls-3" x1="1152" y1="607.5" x2="960.5" y2="648.75"/><line class="cls-3" x1="1152" y1="674.25" x2="960" y2="715.5"/><line class="cls-3" x1="1152" y1="729" x2="960" y2="837"/><line class="cls-3" x1="960" y1="729" x2="1151.5" y2="770.25"/><line class="cls-3" x1="960" y1="795.75" x2="1152" y2="837"/><line class="cls-3" x1="960" y1="850.5" x2="1152" y2="958.5"/><line class="cls-3" x1="1152" y1="850.5" x2="1033.33" y2="891.75"/><line class="cls-3" x1="960" y1="958.5" x2="1078.67" y2="917.25"/><line class="cls-3" x1="1152" y1="972" x2="960" y2="1080"/><line class="cls-3" x1="960" y1="972" x2="1078.67" y2="1013.25"/><line class="cls-3" x1="1152" y1="1080" x2="1033.33" y2="1038.75"/><rect class="cls-5" x="960" width="192" height="108"/><rect class="cls-5" x="960" y="121.5" width="192" height="108"/><rect class="cls-5" x="960" y="243" width="192" height="108"/><rect class="cls-5" x="960" y="364.5" width="192" height="108"/><rect class="cls-5" x="960" y="486" width="192" height="108"/><rect class="cls-5" x="960" y="607.5" width="192" height="108"/><rect class="cls-5" x="960" y="729" width="192" height="108"/><rect class="cls-5" x="960" y="850.5" width="192" height="108"/><rect class="cls-5" x="960" y="972" width="192" height="108"/></g><g id="box4"><text class="cls-2" transform="translate(1193.06 165.46)">Golden Spiral<tspan x="17.42" y="36">Sections (A)</tspan></text><text class="cls-2" transform="translate(1193.06 408.46)">Golden Spiral<tspan x="19.25" y="36">Sections (B)</tspan></text><text class="cls-2" transform="translate(1193.06 268.96)">Golden Spiral<tspan x="17.42" y="36">Sections (A)</tspan><tspan x="63.21" y="72">(Mirror)</tspan></text><text class="cls-2" transform="translate(1193.06 511.96)">Golden Spiral<tspan x="19.25" y="36">Sections (B)</tspan><tspan x="63.21" y="72">(Mirror)</tspan></text><text class="cls-2" transform="translate(1258.58 650.42)">Golden<tspan x="-17.74" y="36">Spiral (A)</tspan></text><text class="cls-2" transform="translate(1258.58 893.42)">Golden<tspan x="-15.91" y="36">Spiral (B)</tspan></text><text class="cls-2" transform="translate(1258.58 754.96)">Golden<tspan x="-17.74" y="36">Spiral (A)</tspan><tspan x="-2.3" y="72">(Mirror)</tspan></text><text class="cls-2" transform="translate(1258.58 997.96)">Golden<tspan x="-15.91" y="36">Spiral (B)</tspan><tspan x="-2.3" y="72">(Mirror)</tspan></text><text class="cls-2" transform="translate(1258.51 39.49)">Golden<tspan x="-28.54" y="42">Rectangle</tspan></text><path d="M1533,3V105H1347V3h186m3-3H1344V108h192V0Z"/><rect class="cls-5" x="1344" y="121.5" width="192" height="108"/><rect class="cls-5" x="1344" y="243" width="192" height="108"/><rect class="cls-5" x="1344" y="364.5" width="192" height="108"/><rect class="cls-5" x="1344" y="486" width="192" height="108"/><rect class="cls-5" x="1344" y="607.5" width="192" height="108"/><rect class="cls-5" x="1344" y="729" width="192" height="108"/><rect class="cls-5" x="1344" y="850.5" width="192" height="108"/><rect class="cls-5" x="1344" y="972" width="192" height="108"/><path class="cls-7" d="M1524.38,3V105H1355.62V3h168.76m3-3H1352.62V108h174.76V0Z"/><path class="cls-8" d="M1520.38,729h-3v.5h3V729Zm-6,0h-3v.5h3V729Zm-6,0h-3v.5h3V729Zm-6,0h-3v.5h3V729Zm-6,0h-3v.5h3V729Zm-6,0h-3v.5h3V729Zm-6,0h-3v.5h3V729Zm-6,0h-3v.5h3V729Zm-6,0h-3v.5h3V729Zm-6,0h-3v.5h3V729Zm-6,0h-3v.5h3V729Zm-6,0h-3v.5h3V729Zm-6,0h-3v.5h3V729Zm-6,0h-3v.5h3V729Zm-6,0h-3v.5h3V729Zm-6,0h-3v.5h3V729Zm-6,0h-3v.5h3V729Zm-6,0h-3v.5h3V729Zm-6,0h-3v.5h3V729Zm-6,0h-3v.5h3V729Zm-6,0h-3v.5h3V729Zm-6,0h-3v.5h3V729Zm-6,0h-3v.5h3V729Zm-6,0h-3v.5h3V729Zm-6,0h-3v.5h3V729Zm-6,0h-3v.5h3V729Zm-6,0h-3v.5h3V729Zm-6,0h-3v.5h3V729Zm-6,0h-.76v.5h0v1.75h.5V729.5h.26V729Zm-.26,5.25h-.5v3h.5v-3Zm0,6h-.5v3h.5v-3Zm0,6h-.5v3h.5v-3Zm0,6h-.5v3h.5v-3Zm0,6h-.5v3h.5v-3Zm0,6h-.5v3h.5v-3Zm0,6h-.5v3h.5v-3Zm0,6h-.5v3h.5v-3Zm0,6h-.5v3h.5v-3Zm0,6h-.5v3h.5v-3Zm0,6h-.5v3h.5v-3Zm0,6h-.5v3h.5v-3Zm0,6h-.5v3h.5v-3Zm0,6h-.5v3h.5v-3Zm0,6h-.5v3h.5v-3Zm0,6h-.5v3h.5v-3Zm0,6h-.5v3h.5v-3Zm0,6h-.5V837h2.26v-.5h-1.76v-.25Zm7.76.25h-3v.5h3v-.5Zm6,0h-3v.5h3v-.5Zm6,0h-3v.5h3v-.5Zm6,0h-3v.5h3v-.5Zm6,0h-3v.5h3v-.5Zm6,0h-3v.5h3v-.5Zm6,0h-3v.5h3v-.5Zm6,0h-3v.5h3v-.5Zm6,0h-3v.5h3v-.5Zm6,0h-3v.5h3v-.5Zm6,0h-3v.5h3v-.5Zm6,0h-3v.5h3v-.5Zm6,0h-3v.5h3v-.5Zm6,0h-3v.5h3v-.5Zm6,0h-3v.5h3v-.5Zm6,0h-3v.5h3v-.5Zm6,0h-3v.5h3v-.5Zm6,0h-3v.5h3v-.5Zm6,0h-3v.5h3v-.5Zm6,0h-3v.5h3v-.5Zm6,0h-3v.5h3v-.5Zm6,0h-3v.5h3v-.5Zm6,0h-3v.5h3v-.5Zm6,0h-3v.5h3v-.5Zm6,0h-3v.5h3v-.5Zm6,0h-3v.5h3v-.5Zm6,0h-3v.5h3v-.5Zm6,0h-3v.5h3v-.5Zm4.5-1h-.5v1h-1v.5h1.5v-1.5Zm0-6h-.5v3h.5v-3Zm0-6h-.5v3h.5v-3Zm0-6h-.5v3h.5v-3Zm0-6h-.5v3h.5v-3Zm0-6h-.5v3h.5v-3Zm0-6h-.5v3h.5v-3Zm0-6h-.5v3h.5v-3Zm0-6h-.5v3h.5v-3Zm0-6h-.5v3h.5v-3Zm0-6h-.5v3h.5v-3Zm0-6h-.5v3h.5v-3Zm0-6h-.5v3h.5v-3Zm0-6h-.5v3h.5v-3Zm0-6h-.5v3h.5v-3Zm0-6h-.5v3h.5v-3Zm0-6h-.5v3h.5v-3Zm0-6h-.5v3h.5v-3Zm0-4.5h-3v.5h2.5v1h.5V729Z"/><path class="cls-8" d="M1520.38,850.5h-3v.5h3v-.5Zm-6,0h-3v.5h3v-.5Zm-6,0h-3v.5h3v-.5Zm-6,0h-3v.5h3v-.5Zm-6,0h-3v.5h3v-.5Zm-6,0h-3v.5h3v-.5Zm-6,0h-3v.5h3v-.5Zm-6,0h-3v.5h3v-.5Zm-6,0h-3v.5h3v-.5Zm-6,0h-3v.5h3v-.5Zm-6,0h-3v.5h3v-.5Zm-6,0h-3v.5h3v-.5Zm-6,0h-3v.5h3v-.5Zm-6,0h-3v.5h3v-.5Zm-6,0h-3v.5h3v-.5Zm-6,0h-3v.5h3v-.5Zm-6,0h-3v.5h3v-.5Zm-6,0h-3v.5h3v-.5Zm-6,0h-3v.5h3v-.5Zm-6,0h-3v.5h3v-.5Zm-6,0h-3v.5h3v-.5Zm-6,0h-3v.5h3v-.5Zm-6,0h-3v.5h3v-.5Zm-6,0h-3v.5h3v-.5Zm-6,0h-3v.5h3v-.5Zm-6,0h-3v.5h3v-.5Zm-6,0h-3v.5h3v-.5Zm-6,0h-3v.5h3v-.5Zm-6,0h-.76v.5h0v1.75h.5V851h.26v-.5Zm-.26,5.25h-.5v3h.5v-3Zm0,6h-.5v3h.5v-3Zm0,6h-.5v3h.5v-3Zm0,6h-.5v3h.5v-3Zm0,6h-.5v3h.5v-3Zm0,6h-.5v3h.5v-3Zm0,6h-.5v3h.5v-3Zm0,6h-.5v3h.5v-3Zm0,6h-.5v3h.5v-3Zm0,6h-.5v3h.5v-3Zm0,6h-.5v3h.5v-3Zm0,6h-.5v3h.5v-3Zm0,6h-.5v3h.5v-3Zm0,6h-.5v3h.5v-3Zm0,6h-.5v3h.5v-3Zm0,6h-.5v3h.5v-3Zm0,6h-.5v3h.5v-3Zm0,6h-.5v.75h2.26V958h-1.76v-.25Zm7.76.25h-3v.5h3V958Zm6,0h-3v.5h3V958Zm6,0h-3v.5h3V958Zm6,0h-3v.5h3V958Zm6,0h-3v.5h3V958Zm6,0h-3v.5h3V958Zm6,0h-3v.5h3V958Zm6,0h-3v.5h3V958Zm6,0h-3v.5h3V958Zm6,0h-3v.5h3V958Zm6,0h-3v.5h3V958Zm6,0h-3v.5h3V958Zm6,0h-3v.5h3V958Zm6,0h-3v.5h3V958Zm6,0h-3v.5h3V958Zm6,0h-3v.5h3V958Zm6,0h-3v.5h3V958Zm6,0h-3v.5h3V958Zm6,0h-3v.5h3V958Zm6,0h-3v.5h3V958Zm6,0h-3v.5h3V958Zm6,0h-3v.5h3V958Zm6,0h-3v.5h3V958Zm6,0h-3v.5h3V958Zm6,0h-3v.5h3V958Zm6,0h-3v.5h3V958Zm6,0h-3v.5h3V958Zm6,0h-3v.5h3V958Zm4.5-1h-.5v1h-1v.5h1.5V957Zm0-6h-.5v3h.5v-3Zm0-6h-.5v3h.5v-3Zm0-6h-.5v3h.5v-3Zm0-6h-.5v3h.5v-3Zm0-6h-.5v3h.5v-3Zm0-6h-.5v3h.5v-3Zm0-6h-.5v3h.5v-3Zm0-6h-.5v3h.5v-3Zm0-6h-.5v3h.5v-3Zm0-6h-.5v3h.5v-3Zm0-6h-.5v3h.5v-3Zm0-6h-.5v3h.5v-3Zm0-6h-.5v3h.5v-3Zm0-6h-.5v3h.5v-3Zm0-6h-.5v3h.5v-3Zm0-6h-.5v3h.5v-3Zm0-6h-.5v3h.5v-3Zm0-4.5h-3v.5h2.5v1h.5v-1.5Z"/><path class="cls-8" d="M1520.38,972h-3v.5h3V972Zm-6,0h-3v.5h3V972Zm-6,0h-3v.5h3V972Zm-6,0h-3v.5h3V972Zm-6,0h-3v.5h3V972Zm-6,0h-3v.5h3V972Zm-6,0h-3v.5h3V972Zm-6,0h-3v.5h3V972Zm-6,0h-3v.5h3V972Zm-6,0h-3v.5h3V972Zm-6,0h-3v.5h3V972Zm-6,0h-3v.5h3V972Zm-6,0h-3v.5h3V972Zm-6,0h-3v.5h3V972Zm-6,0h-3v.5h3V972Zm-6,0h-3v.5h3V972Zm-6,0h-3v.5h3V972Zm-6,0h-3v.5h3V972Zm-6,0h-3v.5h3V972Zm-6,0h-3v.5h3V972Zm-6,0h-3v.5h3V972Zm-6,0h-3v.5h3V972Zm-6,0h-3v.5h3V972Zm-6,0h-3v.5h3V972Zm-6,0h-3v.5h3V972Zm-6,0h-3v.5h3V972Zm-6,0h-3v.5h3V972Zm-6,0h-3v.5h3V972Zm-6,0h-.76v.5h0v1.75h.5V972.5h.26V972Zm-.26,5.25h-.5v3h.5v-3Zm0,6h-.5v3h.5v-3Zm0,6h-.5v3h.5v-3Zm0,6h-.5v3h.5v-3Zm0,6h-.5v3h.5v-3Zm0,6h-.5v3h.5v-3Zm0,6h-.5v3h.5v-3Zm0,6h-.5v3h.5v-3Zm0,6h-.5v3h.5v-3Zm0,6h-.5v3h.5v-3Zm0,6h-.5v3h.5v-3Zm0,6h-.5v3h.5v-3Zm0,6h-.5v3h.5v-3Zm0,6h-.5v3h.5v-3Zm0,6h-.5v3h.5v-3Zm0,6h-.5v3h.5v-3Zm0,6h-.5v3h.5v-3Zm0,6h-.5v.75h2.26v-.5h-1.76v-.25Zm7.76.25h-3v.5h3v-.5Zm6,0h-3v.5h3v-.5Zm6,0h-3v.5h3v-.5Zm6,0h-3v.5h3v-.5Zm6,0h-3v.5h3v-.5Zm6,0h-3v.5h3v-.5Zm6,0h-3v.5h3v-.5Zm6,0h-3v.5h3v-.5Zm6,0h-3v.5h3v-.5Zm6,0h-3v.5h3v-.5Zm6,0h-3v.5h3v-.5Zm6,0h-3v.5h3v-.5Zm6,0h-3v.5h3v-.5Zm6,0h-3v.5h3v-.5Zm6,0h-3v.5h3v-.5Zm6,0h-3v.5h3v-.5Zm6,0h-3v.5h3v-.5Zm6,0h-3v.5h3v-.5Zm6,0h-3v.5h3v-.5Zm6,0h-3v.5h3v-.5Zm6,0h-3v.5h3v-.5Zm6,0h-3v.5h3v-.5Zm6,0h-3v.5h3v-.5Zm6,0h-3v.5h3v-.5Zm6,0h-3v.5h3v-.5Zm6,0h-3v.5h3v-.5Zm6,0h-3v.5h3v-.5Zm6,0h-3v.5h3v-.5Zm4.5-1h-.5v1h-1v.5h1.5v-1.5Zm0-6h-.5v3h.5v-3Zm0-6h-.5v3h.5v-3Zm0-6h-.5v3h.5v-3Zm0-6h-.5v3h.5v-3Zm0-6h-.5v3h.5v-3Zm0-6h-.5v3h.5v-3Zm0-6h-.5v3h.5v-3Zm0-6h-.5v3h.5v-3Zm0-6h-.5v3h.5v-3Zm0-6h-.5v3h.5v-3Zm0-6h-.5v3h.5v-3Zm0-6h-.5v3h.5v-3Zm0-6h-.5v3h.5v-3Zm0-6h-.5v3h.5v-3Zm0-6h-.5v3h.5v-3Zm0-6h-.5v3h.5v-3Zm0-6h-.5v3h.5v-3Zm0-4.5h-3v.5h2.5v1h.5V972Z"/><path class="cls-7" d="M1524.38,124.5v102H1355.62v-102h168.76m3-3H1352.62v108h174.76v-108Z"/><line class="cls-3" x1="1460.63" y1="121.5" x2="1460.63" y2="229.5"/><line class="cls-3" x1="1460.63" y1="188.25" x2="1525.9" y2="188.25"/><line class="cls-3" x1="1486.13" y1="188.25" x2="1486.13" y2="229.5"/><line class="cls-3" x1="1460.63" y1="204" x2="1486.13" y2="204"/><line class="cls-3" x1="1476.38" y1="188.25" x2="1476.38" y2="204"/><line class="cls-3" x1="1476.38" y1="198" x2="1486.13" y2="198"/><line class="cls-3" x1="1480.01" y1="198" x2="1480.01" y2="203.42"/><line class="cls-3" x1="1476.38" y1="200.71" x2="1479.15" y2="200.71"/><path class="cls-7" d="M1524.38,367.5v102H1355.62v-102h168.76m3-3H1352.62v108h174.76v-108Z"/><line class="cls-3" x1="1460.63" y1="472.5" x2="1460.63" y2="364.5"/><line class="cls-3" x1="1460.63" y1="405.75" x2="1525.9" y2="405.75"/><line class="cls-3" x1="1486.13" y1="405.75" x2="1486.13" y2="364.5"/><line class="cls-3" x1="1460.63" y1="390" x2="1486.13" y2="390"/><line class="cls-3" x1="1476.38" y1="405.75" x2="1476.38" y2="390"/><line class="cls-3" x1="1476.38" y1="396" x2="1486.13" y2="396"/><line class="cls-3" x1="1480.01" y1="396" x2="1480.01" y2="390.58"/><line class="cls-3" x1="1476.38" y1="393.29" x2="1479.15" y2="393.29"/><path class="cls-7" d="M1524.38,246V348H1355.62V246h168.76m3-3H1352.62V351h174.76V243Z"/><line class="cls-3" x1="1419.38" y1="243" x2="1419.38" y2="351"/><line class="cls-3" x1="1419.38" y1="309.75" x2="1354.1" y2="309.75"/><line class="cls-3" x1="1393.88" y1="309.75" x2="1393.88" y2="351"/><line class="cls-3" x1="1419.38" y1="325.5" x2="1393.88" y2="325.5"/><line class="cls-3" x1="1403.63" y1="309.75" x2="1403.63" y2="325.5"/><line class="cls-3" x1="1403.63" y1="319.5" x2="1393.88" y2="319.5"/><line class="cls-3" x1="1399.99" y1="319.5" x2="1399.99" y2="324.92"/><line class="cls-3" x1="1403.63" y1="322.21" x2="1400.85" y2="322.21"/><path class="cls-7" d="M1524.38,489V591H1355.62V489h168.76m3-3H1352.62V594h174.76V486Z"/><line class="cls-3" x1="1419.38" y1="594" x2="1419.38" y2="486"/><line class="cls-3" x1="1419.38" y1="527.25" x2="1354.1" y2="527.25"/><line class="cls-3" x1="1393.88" y1="527.25" x2="1393.88" y2="486"/><line class="cls-3" x1="1419.38" y1="511.5" x2="1393.88" y2="511.5"/><line class="cls-3" x1="1403.63" y1="527.25" x2="1403.63" y2="511.5"/><line class="cls-3" x1="1403.63" y1="517.5" x2="1393.88" y2="517.5"/><line class="cls-3" x1="1399.99" y1="517.5" x2="1399.99" y2="512.08"/><line class="cls-3" x1="1403.63" y1="514.79" x2="1400.85" y2="514.79"/><path class="cls-8" d="M1520.38,607.5h-3v.5h3v-.5Zm-6,0h-3v.5h3v-.5Zm-6,0h-3v.5h3v-.5Zm-6,0h-3v.5h3v-.5Zm-6,0h-3v.5h3v-.5Zm-6,0h-3v.5h3v-.5Zm-6,0h-3v.5h3v-.5Zm-6,0h-3v.5h3v-.5Zm-6,0h-3v.5h3v-.5Zm-6,0h-3v.5h3v-.5Zm-6,0h-3v.5h3v-.5Zm-6,0h-3v.5h3v-.5Zm-6,0h-3v.5h3v-.5Zm-6,0h-3v.5h3v-.5Zm-6,0h-3v.5h3v-.5Zm-6,0h-3v.5h3v-.5Zm-6,0h-3v.5h3v-.5Zm-6,0h-3v.5h3v-.5Zm-6,0h-3v.5h3v-.5Zm-6,0h-3v.5h3v-.5Zm-6,0h-3v.5h3v-.5Zm-6,0h-3v.5h3v-.5Zm-6,0h-3v.5h3v-.5Zm-6,0h-3v.5h3v-.5Zm-6,0h-3v.5h3v-.5Zm-6,0h-3v.5h3v-.5Zm-6,0h-3v.5h3v-.5Zm-6,0h-3v.5h3v-.5Zm-6,0h-.76v.5h0v1.75h.5V608h.26v-.5Zm-.26,5.25h-.5v3h.5v-3Zm0,6h-.5v3h.5v-3Zm0,6h-.5v3h.5v-3Zm0,6h-.5v3h.5v-3Zm0,6h-.5v3h.5v-3Zm0,6h-.5v3h.5v-3Zm0,6h-.5v3h.5v-3Zm0,6h-.5v3h.5v-3Zm0,6h-.5v3h.5v-3Zm0,6h-.5v3h.5v-3Zm0,6h-.5v3h.5v-3Zm0,6h-.5v3h.5v-3Zm0,6h-.5v3h.5v-3Zm0,6h-.5v3h.5v-3Zm0,6h-.5v3h.5v-3Zm0,6h-.5v3h.5v-3Zm0,6h-.5v3h.5v-3Zm0,6h-.5v.75h2.26V715h-1.76v-.25Zm7.76.25h-3v.5h3V715Zm6,0h-3v.5h3V715Zm6,0h-3v.5h3V715Zm6,0h-3v.5h3V715Zm6,0h-3v.5h3V715Zm6,0h-3v.5h3V715Zm6,0h-3v.5h3V715Zm6,0h-3v.5h3V715Zm6,0h-3v.5h3V715Zm6,0h-3v.5h3V715Zm6,0h-3v.5h3V715Zm6,0h-3v.5h3V715Zm6,0h-3v.5h3V715Zm6,0h-3v.5h3V715Zm6,0h-3v.5h3V715Zm6,0h-3v.5h3V715Zm6,0h-3v.5h3V715Zm6,0h-3v.5h3V715Zm6,0h-3v.5h3V715Zm6,0h-3v.5h3V715Zm6,0h-3v.5h3V715Zm6,0h-3v.5h3V715Zm6,0h-3v.5h3V715Zm6,0h-3v.5h3V715Zm6,0h-3v.5h3V715Zm6,0h-3v.5h3V715Zm6,0h-3v.5h3V715Zm6,0h-3v.5h3V715Zm4.5-1h-.5v1h-1v.5h1.5V714Zm0-6h-.5v3h.5v-3Zm0-6h-.5v3h.5v-3Zm0-6h-.5v3h.5v-3Zm0-6h-.5v3h.5v-3Zm0-6h-.5v3h.5v-3Zm0-6h-.5v3h.5v-3Zm0-6h-.5v3h.5v-3Zm0-6h-.5v3h.5v-3Zm0-6h-.5v3h.5v-3Zm0-6h-.5v3h.5v-3Zm0-6h-.5v3h.5v-3Zm0-6h-.5v3h.5v-3Zm0-6h-.5v3h.5v-3Zm0-6h-.5v3h.5v-3Zm0-6h-.5v3h.5v-3Zm0-6h-.5v3h.5v-3Zm0-6h-.5v3h.5v-3Zm0-4.5h-3v.5h2.5v1h.5v-1.5Z"/><path class="cls-3" d="M1354.16,714.75c0-58,47.59-104.87,106.4-104.87"/><path class="cls-3" d="M1525.84,674.05c0-35.47-29.19-64.17-65.28-64.17"/><path class="cls-3" d="M1525.84,674.05c0,22.5-17.79,40.7-39.78,40.7"/><path class="cls-3" d="M1460.56,690.71c0,13.29,11.41,24,25.5,24"/><path class="cls-3" d="M1460.56,690.71c0-8.05,7-14.57,15.75-14.57"/><path class="cls-3" d="M1486.06,683.42c0-4-4.36-7.28-9.75-7.28"/><path class="cls-3" d="M1486.06,683.42c0,4-2.18,7.29-4.87,7.29"/><path class="cls-3" d="M1476.31,687.42c0,1.82,2.19,3.29,4.88,3.29"/><path class="cls-3" d="M1354.16,852.07c0,58,47.59,104.86,106.4,104.86"/><path class="cls-3" d="M1525.84,892.76c0,35.47-29.19,64.17-65.28,64.17"/><path class="cls-3" d="M1525.84,892.76c0-22.49-17.79-40.69-39.78-40.69"/><path class="cls-3" d="M1460.56,876.11c0-13.29,11.41-24,25.5-24"/><path class="cls-3" d="M1460.56,876.11c0,8,7,14.56,15.75,14.56"/><path class="cls-3" d="M1486.06,883.39c0,4-4.36,7.28-9.75,7.28"/><path class="cls-3" d="M1486.06,883.39c0-4-2.18-7.28-4.87-7.28"/><path class="cls-3" d="M1476.31,879.4c0-1.82,2.19-3.29,4.88-3.29"/><path class="cls-3" d="M1525.84,835.43c0-58-47.59-104.86-106.4-104.86"/><path class="cls-3" d="M1354.16,794.74c0-35.47,29.19-64.17,65.28-64.17"/><path class="cls-3" d="M1354.16,794.74c0,22.49,17.79,40.69,39.78,40.69"/><path class="cls-3" d="M1419.44,811.39c0,13.29-11.41,24-25.5,24"/><path class="cls-3" d="M1419.44,811.39c0-8-7-14.56-15.75-14.56"/><path class="cls-3" d="M1393.94,804.11c0-4,4.36-7.28,9.75-7.28"/><path class="cls-3" d="M1393.94,804.11c0,4,2.18,7.28,4.87,7.28"/><path class="cls-3" d="M1403.69,808.1c0,1.82-2.19,3.29-4.88,3.29"/><path class="cls-3" d="M1525.84,971.93c0,58-47.59,104.87-106.4,104.87"/><path class="cls-3" d="M1354.16,1012.63c0,35.47,29.19,64.17,65.28,64.17"/><path class="cls-3" d="M1354.16,1012.63c0-22.49,17.79-40.7,39.78-40.7"/><path class="cls-3" d="M1419.44,996c0-13.29-11.41-24.05-25.5-24.05"/><path class="cls-3" d="M1419.44,996c0,8-7,14.56-15.75,14.56"/><path class="cls-3" d="M1393.94,1003.26c0,4,4.36,7.28,9.75,7.28"/><path class="cls-3" d="M1393.94,1003.26c0-4,2.18-7.28,4.87-7.28"/><path class="cls-3" d="M1403.69,999.27c0-1.82-2.19-3.29-4.88-3.29"/></g><g id="box5"><text class="cls-2" transform="translate(1632.17 410.71)">^ Shape<tspan x="8.04" y="36">(Mirror)</tspan></text><text class="cls-9" transform="translate(1652.38 506.62)">(^ Shape only, flips vertically)<tspan x="-35.98" y="36">(^ Shap</tspan><tspan class="cls-10" x="33.39" y="36">e</tspan><tspan x="49.17" y="36">のみ、縦に反転しま</tspan><tspan class="cls-10" x="229.17" y="36">す</tspan><tspan x="254.17" y="36">)</tspan></text><text class="cls-2" transform="translate(1632.17 308.36)">^ Shape</text><text class="cls-2" transform="translate(1632.17 167.71)">&lt; Shape<tspan x="8.04" y="36">(Mirror)</tspan></text><text class="cls-2" transform="translate(1632.17 65.36)">&lt; Shape</text><line class="cls-3" x1="1728" y1="366.75" x2="1824" y2="474.75"/><line class="cls-3" x1="1824" y1="474.75" x2="1920" y2="366.75"/><line class="cls-3" x1="1920" y1="353.14" x2="1824" y2="245.14"/><line class="cls-3" x1="1824" y1="245.14" x2="1728" y2="353.14"/><line class="cls-3" x1="1920" y1="2.25" x2="1728" y2="56.25"/><line class="cls-3" x1="1728" y1="56.25" x2="1920" y2="110.25"/><line class="cls-3" x1="1728" y1="231.75" x2="1920" y2="177.75"/><line class="cls-3" x1="1920" y1="177.75" x2="1728" y2="123.75"/><rect class="cls-5" x="1728" y="2.25" width="192" height="108"/><rect class="cls-5" x="1728" y="123.75" width="192" height="108"/><rect class="cls-5" x="1728" y="245.25" width="192" height="108"/><rect class="cls-5" x="1728" y="366.75" width="192" height="108"/></g></svg>